<svg width="83" height="83" viewBox="0 0 83 83" fill="none" xmlns="http://www.w3.org/2000/svg">
<path d="M0 41.3208C0 18.5 18.5 0 41.3208 0C64.1416 0 82.6416 18.5 82.6416 41.3208C82.6416 64.1416 64.1416 82.6416 41.3208 82.6416H1.43529C0.642601 82.6416 0 81.999 0 81.2063V41.3208Z" fill="white"/>
<g clip-path="url(#clip0_15_563)">
<path d="M38.2441 19.7837H30.9081C28.0813 19.7837 25.6103 21.7163 24.9373 24.4565L16.8417 57.137C16.1206 60.0407 18.3224 62.8578 21.3222 62.8578H41.4555C40.3786 60.5118 39.7825 57.9158 39.7825 55.166C39.7825 52.4162 40.3786 49.8106 41.4555 47.4742H41.3112C39.6094 47.4742 38.2345 46.0993 38.2345 44.3975V38.244C38.2345 36.5422 39.6094 35.1673 41.3112 35.1673C43.013 35.1673 44.388 36.5422 44.388 38.244V42.9552C47.7723 39.119 52.7239 36.7057 58.2332 36.7057C59.0985 36.7057 59.9446 36.7633 60.7811 36.8787L57.7044 24.4565C57.0313 21.7163 54.57 19.7837 51.7336 19.7837H44.388V25.9371C44.388 27.6389 43.013 29.0139 41.3112 29.0139C39.6094 29.0139 38.2345 27.6389 38.2345 25.9371V19.7837H38.2441ZM58.2428 69.0112C65.8865 69.0112 72.0881 62.8097 72.0881 55.166C72.0881 47.5222 65.8865 41.3207 58.2428 41.3207C50.5991 41.3207 44.3976 47.5222 44.3976 55.166C44.3976 62.8097 50.5991 69.0112 58.2428 69.0112ZM58.2428 59.3965C59.3004 59.3965 60.1658 60.2618 60.1658 61.3194C60.1658 62.377 59.3004 63.2424 58.2428 63.2424C57.1852 63.2424 56.3199 62.377 56.3199 61.3194C56.3199 60.2618 57.1852 59.3965 58.2428 59.3965ZM58.2428 45.9358C59.0889 45.9358 59.7812 46.6281 59.7812 47.4742V55.166C59.7812 56.0121 59.0889 56.7043 58.2428 56.7043C57.3967 56.7043 56.7044 56.0121 56.7044 55.166V47.4742C56.7044 46.6281 57.3967 45.9358 58.2428 45.9358Z" fill="#E11D48"/>
</g>
<defs>
<clipPath id="clip0_15_563">
<rect width="61.5344" height="61.5344" fill="white" transform="translate(10.5537 10.5535)"/>
</clipPath>
</defs>
</svg>
